# xmcd
#
# Track frame offsets:
#	150
#	18799
#	32319
#	44838
#	60498
#	79764
#	93419
#	110566
#	130814
#	144545
#	159457
#	176508
#	187315
#	199055
#
# Disc length: 2877 seconds
#
# Revision: 2
# Processed by: cddbd v1.5.2PL0 Copyright (c) Steve Scherf et al.
# Submitted via: audiograbber 1.83.01
#
DISCID=bb0b3b0e
DTITLE=StarDisc - SD 145
DYEAR=2006
DGENRE=Karaoke
TTITLE0=Brooks and Dunn - Building Bridges
TTITLE1=Faith Hill,  - Sunshine and Summertime
TTITLE2=Jack Ingram,  - Love You
TTITLE3=Big and Rich - 8th Of November
TTITLE4=Brad Paisley,  - She's Everything
TTITLE5=Gretchen Wilson,  - California Girls
TTITLE6=Jeff Bates,  - One Second Chance
TTITLE7=Rascal Flatts - Life Is A Highway
TTITLE8=Emerson Drive - A Good Man
TTITLE9=Matt Jenkins,  - Bad As I Want To
TTITLE10=Tracy Byrd,  - Cheapest Motel
TTITLE11=Sawyer Brown  - Keep Your Hands To Yourself
TTITLE12=Alan Jackson, and Jimmy Buffett - Barefootin'
TTITLE13=Taylor Swift,  - Tim McGraw
EXTD=
EXTT0=
EXTT1=
EXTT2=
EXTT3=
EXTT4=
EXTT5=
EXTT6=
EXTT7=
EXTT8=
EXTT9=
EXTT10=
EXTT11=
EXTT12=
EXTT13=
PLAYORDER=
